<svg height="512" viewBox="0 0 512 512" width="512" xmlns="http://www.w3.org/2000/svg"><g><path d="m476 48h-440a28.031 28.031 0 0 0 -28 28v360a28.031 28.031 0 0 0 28 28h440a28.031 28.031 0 0 0 28-28v-360a28.031 28.031 0 0 0 -28-28zm12 388a12.01 12.01 0 0 1 -12 12h-440a12.01 12.01 0 0 1 -12-12v-324h464zm0-340h-464v-20a12.01 12.01 0 0 1 12-12h440a12.01 12.01 0 0 1 12 12z"/><path d="m40 88h8a8 8 0 0 0 0-16h-8a8 8 0 0 0 0 16z"/><path d="m72 88h8a8 8 0 0 0 0-16h-8a8 8 0 0 0 0 16z"/><path d="m104 88h8a8 8 0 0 0 0-16h-8a8 8 0 0 0 0 16z"/><path d="m192 136a8 8 0 0 0 -8 8v120a8 8 0 0 0 8 8h120a8 8 0 0 0 8-8 128.144 128.144 0 0 0 -128-128zm8 120v-103.72a112.194 112.194 0 0 1 103.72 103.72z"/><path d="m288 280h-112v-112a8 8 0 0 0 -8-8 128 128 0 1 0 128 128 8 8 0 0 0 -8-8zm-232 8a112.152 112.152 0 0 1 104-111.717v108.4l-76.651 76.654a111.133 111.133 0 0 1 -27.349-73.337zm112 112a111.136 111.136 0 0 1 -73.337-27.349l76.651-76.651h108.4a112.154 112.154 0 0 1 -111.714 104z"/><path d="m464 208h-128a8 8 0 0 0 -8 8v64a8 8 0 0 0 8 8h128a8 8 0 0 0 8-8v-64a8 8 0 0 0 -8-8zm-8 64h-112v-48h112z"/><path d="m464 152h-128a8 8 0 0 0 0 16h128a8 8 0 0 0 0-16z"/><path d="m336 192h64a8 8 0 0 0 0-16h-64a8 8 0 0 0 0 16z"/><path d="m432 192a8 8 0 0 0 0-16h-8a8 8 0 0 0 0 16z"/><path d="m432 304h-96a8 8 0 0 0 0 16h96a8 8 0 0 0 0-16z"/><path d="m464 304h-8a8 8 0 0 0 0 16h8a8 8 0 0 0 0-16z"/><path d="m432 336h-96a8 8 0 0 0 0 16h96a8 8 0 0 0 0-16z"/><path d="m464 336h-8a8 8 0 0 0 0 16h8a8 8 0 0 0 0-16z"/><path d="m432 368h-96a8 8 0 0 0 0 16h96a8 8 0 0 0 0-16z"/><path d="m464 368h-8a8 8 0 0 0 0 16h8a8 8 0 0 0 0-16z"/><path d="m432 400h-96a8 8 0 0 0 0 16h96a8 8 0 0 0 0-16z"/><path d="m464 400h-8a8 8 0 0 0 0 16h8a8 8 0 0 0 0-16z"/></g></svg>