<svg id="Capa_1" enable-background="new 0 0 512 512" height="512" viewBox="0 0 512 512" width="512" xmlns="http://www.w3.org/2000/svg" xmlns:xlink="http://www.w3.org/1999/xlink"><linearGradient id="SVGID_1_" gradientUnits="userSpaceOnUse" x1="256" x2="256" y1="481" y2="31"><stop offset="0" stop-color="#a93aff"/><stop offset="1" stop-color="#ff81ff"/></linearGradient><linearGradient id="SVGID_2_" gradientUnits="userSpaceOnUse" x1="286" x2="286" y1="405.194" y2="109.161"><stop offset="0" stop-color="#ffbef9"/><stop offset="1" stop-color="#fff1ff"/></linearGradient><g><g><g><path d="m512 121v-45c0-24.814-20.186-45-45-45h-362c-24.814 0-45 20.186-45 45v45l32.21 30h7.579l-39.789 30h-15c-24.814 0-45 20.186-45 45v210c0 24.814 20.186 45 45 45h362c24.814 0 45-20.186 45-45v-105l30-26.526v-108.474c0-24.814-20.186-45-45-45h30.474z" fill="url(#SVGID_1_)"/></g></g><g><g><path d="m75 271h91c8.291 0 15-6.709 15-15s-6.709-15-15-15h-91c-8.291 0-15 6.709-15 15s6.709 15 15 15zm151 30h-151c-8.291 0-15 6.709-15 15s6.709 15 15 15h151c8.291 0 15-6.709 15-15s-6.709-15-15-15zm-166-180v60h347c24.814 0 45 20.186 45 45v105h15c24.814 0 45-20.186 45-45v-165z" fill="url(#SVGID_2_)"/></g></g></g></svg>