<svg id="Capa_1" enable-background="new 0 0 512 512" height="512" viewBox="0 0 512 512" width="512" xmlns="http://www.w3.org/2000/svg"><g><g><path d="m120.34 374.769h64.724c4.134 0 7.485-3.351 7.485-7.485s-3.351-7.485-7.485-7.485h-64.724c-4.134 0-7.485 3.351-7.485 7.485s3.351 7.485 7.485 7.485z"/><path d="m120.34 405.887h102.965c4.134 0 7.485-3.351 7.485-7.485s-3.351-7.485-7.485-7.485h-102.965c-4.134 0-7.485 3.351-7.485 7.485s3.351 7.485 7.485 7.485z"/><path d="m412.041 48.553c-35.698 0-67.08 18.814-84.766 47.043h-10.075l-14.453-36.464c-3.392-8.556-11.53-14.084-20.734-14.084h-223.74c-12.298 0-22.304 10.005-22.304 22.303v20.912c0 4.044-3.29 7.333-7.333 7.333h-1.367c-15.036 0-27.269 12.233-27.269 27.269v303.471c0 22.396 18.22 40.616 40.616 40.616h.002.001 421.547c15.036 0 27.269-12.233 27.269-27.269v-52.088c0-4.134-3.351-7.485-7.485-7.485s-7.485 3.351-7.485 7.485v52.088c0 6.781-5.517 12.299-12.299 12.299h-390.072c5.714-6.999 9.144-15.931 9.144-25.649v-258.037c0-6.782 5.517-12.299 12.299-12.299h79.903c4.134 0 7.485-3.351 7.485-7.485s-3.351-7.485-7.485-7.485h-79.903c-15.036 0-27.269 12.233-27.269 27.269v258.038c0 14.143-11.506 25.649-25.649 25.649h-.001-.002c-14.141 0-25.646-11.505-25.646-25.646v-303.472c0-6.782 5.517-12.299 12.299-12.299h1.367c12.298 0 22.304-10.005 22.304-22.303v-20.912c0-4.044 3.29-7.333 7.333-7.333h104.744c3.026 0 5.702 1.818 6.817 4.631l12.618 31.832c3.392 8.557 11.53 14.085 20.734 14.085h116.386c-3.917 9.511-6.412 19.752-7.209 30.46h-104.453c-4.134 0-7.485 3.351-7.485 7.485s3.351 7.485 7.485 7.485h104.453c3.841 51.635 47.08 92.474 99.679 92.474 23.597 0 45.307-8.225 62.424-21.95v126.371c0 4.134 3.351 7.485 7.485 7.485s7.485-3.351 7.485-7.485v-141.193c14.095-17.233 22.564-39.239 22.564-63.187 0-55.117-44.841-99.958-99.959-99.958zm-208.855 47.043c-3.026 0-5.702-1.818-6.817-4.631l-12.267-30.947h97.912c3.026 0 5.702 1.818 6.817 4.631l12.267 30.948h-97.912zm208.855 137.904c-46.863 0-84.989-38.126-84.989-84.989s38.126-84.989 84.989-84.989 84.989 38.126 84.989 84.989-38.126 84.989-84.989 84.989z"/><path d="m428.818 90.031c-4.257-4.785-10.372-7.529-16.776-7.529s-12.519 2.744-16.776 7.529l-35.221 39.587c-3.987 4.481-5.99 10.247-5.641 16.235s3.01 11.481 7.491 15.468 10.246 5.992 16.235 5.641c4.173-.244 8.107-1.61 11.457-3.933v29.037c0 12.382 10.073 22.455 22.455 22.455s22.455-10.073 22.455-22.455v-29.049c3.72 2.569 8.171 3.983 12.771 3.983 5.506 0 10.805-2.017 14.921-5.679 4.481-3.987 7.141-9.48 7.491-15.468.349-5.988-1.654-11.753-5.641-16.235zm25.917 54.95c-.116 1.996-1.003 3.827-2.496 5.156-1.372 1.221-3.138 1.893-4.971 1.893-2.169 0-4.158-.891-5.597-2.51l-9.067-10.191c-2.066-2.321-5.351-3.126-8.254-2.02-2.904 1.105-4.823 3.889-4.823 6.996v47.761c0 4.127-3.358 7.485-7.485 7.485-4.128 0-7.485-3.357-7.485-7.485v-47.761c0-3.107-1.919-5.891-4.823-6.996-.867-.33-1.768-.49-2.66-.49-2.096 0-4.145.882-5.594 2.51l-9.067 10.191c-1.329 1.493-3.16 2.38-5.156 2.497-1.997.119-3.918-.551-5.412-1.88s-2.38-3.16-2.497-5.156.551-3.918 1.881-5.412l35.221-39.588c1.419-1.594 3.457-2.509 5.592-2.509s4.173.915 5.592 2.51l35.221 39.587c1.329 1.494 1.996 3.416 1.88 5.412z"/></g></g></svg>