<svg id="Icons" height="512" viewBox="0 0 74 74" width="512" xmlns="http://www.w3.org/2000/svg"><path d="m41.074 72h-8.148a1.989 1.989 0 0 1 -1.978-1.7l-.855-5.731a28.157 28.157 0 0 1 -7.7-3.19l-4.66 3.448a2.012 2.012 0 0 1 -2.6-.193l-5.762-5.766a2.011 2.011 0 0 1 -.193-2.6l3.447-4.659a28.177 28.177 0 0 1 -3.19-7.7l-5.73-.856a2.012 2.012 0 0 1 -1.705-1.979v-8.148a2.012 2.012 0 0 1 1.705-1.978l5.73-.856a28.165 28.165 0 0 1 3.19-7.7l-3.447-4.656a2.013 2.013 0 0 1 .193-2.605l5.761-5.76a2.013 2.013 0 0 1 2.6-.194l4.668 3.448a28.157 28.157 0 0 1 7.7-3.19l.848-5.735a1.989 1.989 0 0 1 1.978-1.7h8.148a1.989 1.989 0 0 1 1.978 1.7l.855 5.731a28.157 28.157 0 0 1 7.7 3.19l4.66-3.448a2.012 2.012 0 0 1 2.6.193l5.761 5.762a2.011 2.011 0 0 1 .193 2.6l-3.447 4.658a28.165 28.165 0 0 1 3.19 7.7l5.73.856a2.012 2.012 0 0 1 1.706 1.984v8.148a2.012 2.012 0 0 1 -1.7 1.978l-5.73.856a28.177 28.177 0 0 1 -3.19 7.7l3.447 4.659a2.013 2.013 0 0 1 -.193 2.6l-5.761 5.76a2.01 2.01 0 0 1 -2.6.194l-4.659-3.448a28.157 28.157 0 0 1 -7.7 3.19l-.862 5.737a1.989 1.989 0 0 1 -1.978 1.7zm-18.73-12.832a1 1 0 0 1 .535.156 26.2 26.2 0 0 0 8.321 3.449 1 1 0 0 1 .771.828l.956 6.4h8.147l.955-6.4a1 1 0 0 1 .771-.828 26.2 26.2 0 0 0 8.321-3.449 1 1 0 0 1 1.13.041l5.2 3.85 5.761-5.761-3.85-5.2a1 1 0 0 1 -.041-1.13 26.191 26.191 0 0 0 3.451-8.324 1 1 0 0 1 .829-.771l6.4-.955v-8.148l-6.4-.955a1 1 0 0 1 -.829-.771 26.206 26.206 0 0 0 -3.448-8.322 1 1 0 0 1 .041-1.129l3.85-5.2-5.761-5.761-5.2 3.85a1 1 0 0 1 -1.13.041 26.2 26.2 0 0 0 -8.324-3.452 1 1 0 0 1 -.771-.828l-.956-6.399h-8.147l-.955 6.4a1 1 0 0 1 -.771.828 26.2 26.2 0 0 0 -8.321 3.449 1 1 0 0 1 -1.13-.041l-5.2-3.85-5.761 5.761 3.85 5.2a1 1 0 0 1 .041 1.129 26.206 26.206 0 0 0 -3.451 8.324 1 1 0 0 1 -.829.771l-6.399.955v8.148l6.4.955a1 1 0 0 1 .829.771 26.191 26.191 0 0 0 3.448 8.321 1 1 0 0 1 -.041 1.13l-3.85 5.2 5.761 5.761 5.2-3.85a1 1 0 0 1 .597-.194z"/><path d="m44.05 55.911a1 1 0 0 1 -.357-1.935 15.725 15.725 0 0 0 2.623-1.288 1 1 0 1 1 1.047 1.7 17.752 17.752 0 0 1 -2.957 1.452.989.989 0 0 1 -.356.071z"/><path d="m35.421 57.18h-.082a20.248 20.248 0 1 1 21.911-20.18c0 .672-.032 1.343-.095 2a1 1 0 1 1 -1.99-.192c.057-.589.085-1.2.085-1.8a18.25 18.25 0 1 0 -19.75 18.176 1 1 0 0 1 -.08 2z"/><path d="m52.109 49.91a1 1 0 0 1 -.777-1.628 17.106 17.106 0 0 0 1.587-2.343 1 1 0 1 1 1.742.982 19.069 19.069 0 0 1 -1.772 2.617 1 1 0 0 1 -.78.372z"/></svg>