<svg xmlns="http://www.w3.org/2000/svg"  viewBox="0 0 64 64" width="512px" height="512px"><linearGradient id="A~2rN2Nv6JudGDrDrq04Ma" x1="32" x2="32" y1="11.25" y2="53.251" gradientUnits="userSpaceOnUse" spreadMethod="reflect"><stop offset="0" stop-color="#1a6dff"/><stop offset="1" stop-color="#c822ff"/></linearGradient><path fill="url(#A~2rN2Nv6JudGDrDrq04Ma)" d="M58,52H6c-1.654,0-3-1.346-3-3V19c0-1.654,1.346-3,3-3h52c1.654,0,3,1.346,3,3v30 C61,50.654,59.654,52,58,52z M6,18c-0.552,0-1,0.448-1,1v30c0,0.552,0.448,1,1,1h52c0.552,0,1-0.448,1-1V19c0-0.552-0.448-1-1-1H6z"/><linearGradient id="A~2rN2Nv6JudGDrDrq04Mb" x1="32" x2="32" y1="11.25" y2="53.25" gradientUnits="userSpaceOnUse" spreadMethod="reflect"><stop offset="0" stop-color="#1a6dff"/><stop offset="1" stop-color="#c822ff"/></linearGradient><path fill="url(#A~2rN2Nv6JudGDrDrq04Mb)" d="M5 12H59V14H5z"/><linearGradient id="A~2rN2Nv6JudGDrDrq04Mc" x1="49.174" x2="49.174" y1="25.25" y2="43.757" gradientUnits="userSpaceOnUse" spreadMethod="reflect"><stop offset="0" stop-color="#6dc7ff"/><stop offset="1" stop-color="#e6abff"/></linearGradient><path fill="url(#A~2rN2Nv6JudGDrDrq04Mc)" fill-rule="evenodd" d="M53.597,34.115c0-3.045-1.474-5.355-4.298-5.355 c-2.828,0-4.549,2.451-4.549,5.479c0,3.585,2.044,5.422,4.94,5.422c1.421,0,2.31-0.3,3.31-0.747v-2.395 c-1,0.409-1.755,0.472-2.935,0.472c-1.159,0-2.194,0.01-2.327-1.99h5.82C53.571,35,53.597,34.402,53.597,34.115z M47.711,33 c0-1,0.826-1.901,1.569-1.901c0.73,0,1.504,0.901,1.504,1.901H47.711z" clip-rule="evenodd"/><linearGradient id="A~2rN2Nv6JudGDrDrq04Md" x1="39.63" x2="39.63" y1="25.25" y2="43.757" gradientUnits="userSpaceOnUse" spreadMethod="reflect"><stop offset="0" stop-color="#6dc7ff"/><stop offset="1" stop-color="#e6abff"/></linearGradient><path fill="url(#A~2rN2Nv6JudGDrDrq04Md)" fill-rule="evenodd" d="M40.154,28.853c-1.165,0-1.918,0.523-2.329,0.907 L37.671,29h-2.618l0.001,13.902l2.973-0.619l0.006-3.358c0.427,0.313,1.063,0.755,2.103,0.755c2.127,0,4.072-1.71,4.072-5.488 C44.208,30.732,42.242,28.853,40.154,28.853z M39.443,37.057c-0.697,0-1.114-0.251-1.402-0.564l-0.018-4.418 c0.31-0.339,0.737-0.589,1.42-0.589c1.088,0,1.836,1.218,1.836,2.774C41.28,35.86,40.543,37.057,39.443,37.057z" clip-rule="evenodd"/><linearGradient id="A~2rN2Nv6JudGDrDrq04Me" x1="32.5" x2="32.5" y1="25.25" y2="43.757" gradientUnits="userSpaceOnUse" spreadMethod="reflect"><stop offset="0" stop-color="#6dc7ff"/><stop offset="1" stop-color="#e6abff"/></linearGradient><path fill="url(#A~2rN2Nv6JudGDrDrq04Me)" fill-rule="evenodd" d="M31 28.145L34 27.51 34 25.089 31 25.724z" clip-rule="evenodd"/><linearGradient id="A~2rN2Nv6JudGDrDrq04Mf" x1="32.5" x2="32.5" y1="25.25" y2="43.757" gradientUnits="userSpaceOnUse" spreadMethod="reflect"><stop offset="0" stop-color="#6dc7ff"/><stop offset="1" stop-color="#e6abff"/></linearGradient><path fill="url(#A~2rN2Nv6JudGDrDrq04Mf)" fill-rule="evenodd" d="M31 29H34V39H31z" clip-rule="evenodd"/><linearGradient id="A~2rN2Nv6JudGDrDrq04Mg" x1="27.5" x2="27.5" y1="25.25" y2="43.757" gradientUnits="userSpaceOnUse" spreadMethod="reflect"><stop offset="0" stop-color="#6dc7ff"/><stop offset="1" stop-color="#e6abff"/></linearGradient><path fill="url(#A~2rN2Nv6JudGDrDrq04Mg)" fill-rule="evenodd" d="M27.638,29.904L27.57,29H25v10h3v-6.593 c0-0.923,1-0.745,2-0.623v-2.733C29,28.909,28.333,28.625,27.638,29.904z" clip-rule="evenodd"/><linearGradient id="A~2rN2Nv6JudGDrDrq04Mh" x1="21.44" x2="21.44" y1="25.25" y2="43.757" gradientUnits="userSpaceOnUse" spreadMethod="reflect"><stop offset="0" stop-color="#6dc7ff"/><stop offset="1" stop-color="#e6abff"/></linearGradient><path fill="url(#A~2rN2Nv6JudGDrDrq04Mh)" fill-rule="evenodd" d="M21.795,26.444l-2.902,0.63l-0.013,9.544 c0,1.76,1.296,3.063,3.061,3.063c0.972,0,1.059-0.173,2.059-0.391v-2.42c-1,0.152-3,0.698-3-1.054V32h3v-3h-2.203L21.795,26.444z" clip-rule="evenodd"/><linearGradient id="A~2rN2Nv6JudGDrDrq04Mi" x1="14.037" x2="14.037" y1="25.25" y2="43.757" gradientUnits="userSpaceOnUse" spreadMethod="reflect"><stop offset="0" stop-color="#6dc7ff"/><stop offset="1" stop-color="#e6abff"/></linearGradient><path fill="url(#A~2rN2Nv6JudGDrDrq04Mi)" fill-rule="evenodd" d="M13.746,32.076c0-0.464,0.031-0.644,0.654-0.644 c0.904,0,1.601,0.277,2.601,0.765v-2.8c-1-0.393-1.613-0.544-2.598-0.544c-2.411,0-3.841,1.259-3.841,3.364 c0,3.291,4.609,2.757,4.609,4.176c0,0.549-0.865,0.727-1.528,0.727C12.656,37.12,11,36.713,10,36.17v2.838 c2,0.476,2.658,0.675,3.683,0.675c2.472,0,4.391-1.221,4.391-3.361C18.074,32.778,13.746,33.413,13.746,32.076z" clip-rule="evenodd"/></svg>