<svg id="Capa_1" enable-background="new 0 0 512 512" height="512" viewBox="0 0 512 512" width="512" xmlns="http://www.w3.org/2000/svg"><g><path d="m346.5 213.5c4.143 0 7.5-3.358 7.5-7.5v-25c0-4.142-3.357-7.5-7.5-7.5s-7.5 3.358-7.5 7.5v25c0 4.142 3.357 7.5 7.5 7.5z"/><path d="m339 267c0 4.142 3.357 7.5 7.5 7.5s7.5-3.358 7.5-7.5v-23c0-4.142-3.357-7.5-7.5-7.5s-7.5 3.358-7.5 7.5z"/><path d="m339 330c0 4.142 3.357 7.5 7.5 7.5s7.5-3.358 7.5-7.5v-24c0-4.142-3.357-7.5-7.5-7.5s-7.5 3.358-7.5 7.5z"/><path d="m496.86 214.184c8.772-1.59 15.14-9.238 15.14-18.186v-69.998c0-15.164-12.337-27.5-27.5-27.5h-111c-10.926 0-20.674 5.111-27 13.061-6.326-7.95-16.074-13.061-27-13.061h-217.5c-4.143 0-7.5 3.358-7.5 7.5s3.357 7.5 7.5 7.5h217.5c10.752 0 19.5 8.748 19.5 19.5v11.988c0 4.142 3.357 7.5 7.5 7.5s7.5-3.358 7.5-7.5v-11.988c0-10.752 8.748-19.5 19.5-19.5h111c6.893 0 12.5 5.607 12.5 12.5v69.998c0 1.69-1.184 3.131-2.815 3.426-27.341 4.956-47.185 28.75-47.185 56.576s19.844 51.62 47.185 56.576c1.632.295 2.815 1.736 2.815 3.426v29.498c0 4.142 3.357 7.5 7.5 7.5s7.5-3.358 7.5-7.5v-29.498c0-8.948-6.367-16.596-15.14-18.186-20.199-3.661-34.86-21.248-34.86-41.816s14.661-38.155 34.86-41.816z"/><path d="m504.5 373c-4.143 0-7.5 3.358-7.5 7.5v5.5c0 6.893-5.607 12.5-12.5 12.5h-111c-10.752 0-19.5-8.748-19.5-19.5 0-3.088 0-9.976 0-13 0-4.142-3.357-7.5-7.5-7.5s-7.5 3.358-7.5 7.5v13c0 10.752-8.748 19.5-19.5 19.5h-292c-6.893 0-12.5-5.607-12.5-12.5v-69.998c0-1.689 1.184-3.131 2.815-3.426 27.341-4.956 47.185-28.75 47.185-56.576s-19.844-51.62-47.185-56.576c-1.632-.295-2.815-1.737-2.815-3.426v-69.998c0-6.893 5.607-12.5 12.5-12.5h39.5c4.143 0 7.5-3.358 7.5-7.5s-3.357-7.5-7.5-7.5h-39.5c-15.163 0-27.5 12.336-27.5 27.5v69.998c0 8.947 6.367 16.596 15.14 18.186 20.199 3.661 34.86 21.248 34.86 41.816s-14.661 38.155-34.86 41.816c-8.773 1.591-15.14 9.239-15.14 18.186v69.998c0 15.164 12.337 27.5 27.5 27.5h292c10.926 0 20.674-5.111 27-13.061 6.326 7.95 16.074 13.061 27 13.061h111c15.163 0 27.5-12.336 27.5-27.5v-5.5c0-4.142-3.357-7.5-7.5-7.5z"/><path d="m108 256c0 4.142 3.357 7.5 7.5 7.5h169c4.143 0 7.5-3.358 7.5-7.5s-3.357-7.5-7.5-7.5h-169c-4.143 0-7.5 3.358-7.5 7.5z"/><path d="m115.5 323.5h81.5c4.143 0 7.5-3.358 7.5-7.5s-3.357-7.5-7.5-7.5h-81.5c-4.143 0-7.5 3.358-7.5 7.5s3.357 7.5 7.5 7.5z"/><path d="m248.5 203.5c4.143 0 7.5-3.358 7.5-7.5s-3.357-7.5-7.5-7.5h-97c-4.143 0-7.5 3.358-7.5 7.5s3.357 7.5 7.5 7.5z"/><path d="m284.5 308.5h-42.5c-4.143 0-7.5 3.358-7.5 7.5s3.357 7.5 7.5 7.5h42.5c4.143 0 7.5-3.358 7.5-7.5s-3.357-7.5-7.5-7.5z"/></g></svg>